<?xml version="1.0" encoding="UTF-8"?>
<!DOCTYPE svg PUBLIC "-//W3C//DTD SVG 1.1//EN" "http://www.w3.org/Graphics/SVG/1.1/DTD/svg11.dtd">
<!-- Creator: CorelDRAW 2020 (64-Bit) -->
<svg xmlns="http://www.w3.org/2000/svg" xml:space="preserve" width="230.387mm" height="63.5mm" version="1.1" style="shape-rendering:geometricPrecision; text-rendering:geometricPrecision; image-rendering:optimizeQuality; fill-rule:evenodd; clip-rule:evenodd"
viewBox="0 0 23038.7 6350"
 xmlns:xlink="http://www.w3.org/1999/xlink"
 xmlns:xodm="http://www.corel.com/coreldraw/odm/2003">
 <defs>
  <style type="text/css">
   <![CDATA[
    .fil2 {fill:#262626}
    .fil0 {fill:#299400}
    .fil1 {fill:white}
   ]]>
  </style>
 </defs>
 <g id="Слой_x0020_1">
  <metadata id="CorelCorpID_0Corel-Layer"/>
  <g id="_1942755646576">
   <path class="fil0" d="M3162.72 6350c1746.3,0 3175,-1422.4 3175,-3175 0,-1752.6 -1428.7,-3175 -3175,-3175 -1752.6,0 -3175,1422.4 -3175,3175 0,1752.6 1422.4,3175 3175,3175z"/>
   <path class="fil1" d="M3162.72 992.2c1091.4,0 1832.2,840.1 1832.2,1746.3 0,363.8 -79.4,681.3 -264.6,1078.2 -1084.8,0 -1283.2,721 -1329.5,1203.9l-33.1 337.3 -410 -0.1 -33.1 -337.3c-46.3,-482.9 -244.7,-1203.9 -1329.5,-1203.9 -185.2,-396.9 -264.6,-714.4 -264.6,-1078.2 0,-906.2 740.8,-1746.3 1832.2,-1746.3l0 0.1z"/>
   <path class="fil2" d="M9195.22 992.2c-1031.9,0 -1805.8,628.4 -1799.2,1719.8l959.2 0c-13.2,-436.6 264.6,-859.9 840,-859.9 436.6,0 714.4,291 714.4,661.5 0,383.6 -304.3,595.3 -793.8,833.4 -641.6,310.9 -1025.3,456.4 -1719.8,687.9l0.1 1256.8 3439.5 0 0 -859.9 -2143.1 0c331.5,-138.1 654.3,-290 945.9,-429.9 773.9,-370.4 1230.3,-787.1 1230.3,-1534.6 0,-899.6 -674.7,-1475.1 -1673.5,-1475.1zm3161.8 926l1984.4 0 0 -859.9 -2910.4 0 0 4233.3 926 0.1 0 -3373.5zm3373.4 -859.9l-926 0 0 4233.3 919.4 0.1 1726.4 -2705.4 0 2705.4 926.1 0 0 -4233.4 -926.1 0 -1719.8 2705.4 0 -2705.4zm7295.9 2645.9l-959.1 0c-145.5,469.6 -588.7,793.8 -1111.3,793.8 -760.7,0 -1256.8,-654.8 -1256.8,-1322.9 0,-668.1 482.9,-1322.9 1283.2,-1322.9 529.2,0 939.3,324.1 1084.8,793.8l959.2 -0.2c-138.9,-945.9 -886.4,-1653.6 -2070.4,-1653.6 -1309.6,0 -2182.7,919.4 -2182.7,2182.8 0,1263.4 873.1,2182.8 2182.8,2182.8 1184,0 1931.5,-694.5 2070.4,-1653.6l-0.1 0z"/>
  </g>
 </g>
</svg>
